<svg width="38" height="22" viewBox="0 0 38 22" fill="none" xmlns="http://www.w3.org/2000/svg">
<path d="M4.64054 3.21446C15.6941 7.81655 25.8238 13.6329 35.7602 20.3029C37.4012 21.4045 38.8745 18.7748 37.2921 17.6554C27.5588 10.7702 16.2946 5.52877 4.9855 1.94965C4.16728 1.69046 3.89101 2.90221 4.64054 3.21446Z" fill="#1F1F1F"/>
<path d="M26.877 2.16646C29.5923 8.20122 33.0061 13.9105 35.7799 19.9289C36.1254 19.3207 36.4709 18.7126 36.8164 18.1044C33.9021 18.2891 30.9893 18.4932 28.0816 18.7621C25.1981 19.0289 22.253 19.8641 19.3595 19.735C17.772 19.6641 18.0175 22.3789 19.657 21.9549C22.4712 21.2269 25.5982 21.484 28.4786 21.2422C31.258 21.0085 34.0364 20.758 36.8164 20.5294C37.7523 20.4524 38.273 19.5667 37.8528 18.7049C34.9612 12.7804 31.9242 6.60681 27.8109 1.43839C27.3563 0.867466 26.6199 1.59605 26.877 2.16646Z" fill="#1F1F1F"/>
<path d="M7.15256e-07 1.13745C7.15256e-07 2.65277 2.33142 2.65532 2.33142 1.13745C2.33092 -0.377874 7.15256e-07 -0.380425 7.15256e-07 1.13745Z" fill="#1F1F1F"/>
</svg>
