<svg width="16" height="16" viewBox="0 0 16 16" fill="none" xmlns="http://www.w3.org/2000/svg">
<path d="M6.55998 7.145C6.59748 6.8975 6.67998 6.68 6.78498 6.4925C6.88998 6.305 7.03998 6.1475 7.22748 6.0275C7.40748 5.915 7.63248 5.8625 7.90998 5.855C8.08248 5.8625 8.23998 5.8925 8.38248 5.9525C8.53248 6.02 8.66748 6.11 8.77248 6.2225C8.87748 6.335 8.95998 6.47 9.02748 6.62C9.09498 6.77 9.12498 6.935 9.13248 7.1H10.475C10.46 6.7475 10.3925 6.425 10.265 6.1325C10.1375 5.84 9.96498 5.585 9.73998 5.375C9.51498 5.165 9.24498 5 8.92998 4.88C8.61498 4.76 8.26998 4.7075 7.88748 4.7075C7.39998 4.7075 6.97248 4.79 6.61248 4.9625C6.25248 5.135 5.95248 5.36 5.71248 5.6525C5.47248 5.945 5.29248 6.2825 5.17998 6.6725C5.06748 7.0625 4.99998 7.4675 4.99998 7.9025V8.105C4.99998 8.54 5.05998 8.945 5.17248 9.335C5.28498 9.725 5.46498 10.0625 5.70498 10.3475C5.94498 10.6325 6.24498 10.865 6.60498 11.03C6.96498 11.195 7.39248 11.285 7.87998 11.285C8.23248 11.285 8.56248 11.225 8.86998 11.1125C9.17748 11 9.44748 10.8425 9.67998 10.64C9.91248 10.4375 10.1 10.205 10.235 9.935C10.37 9.665 10.4525 9.38 10.46 9.0725H9.11748C9.10998 9.23 9.07248 9.3725 9.00498 9.5075C8.93748 9.6425 8.84748 9.755 8.73498 9.8525C8.62248 9.95 8.49498 10.025 8.34498 10.0775C8.20248 10.13 8.05248 10.145 7.89498 10.1525C7.62498 10.145 7.39998 10.0925 7.22748 9.98C7.03998 9.86 6.88998 9.7025 6.78498 9.515C6.67998 9.3275 6.59748 9.1025 6.55998 8.855C6.52248 8.6075 6.49998 8.3525 6.49998 8.105V7.9025C6.49998 7.64 6.52248 7.3925 6.55998 7.145ZM7.99998 0.5C3.85998 0.5 0.499977 3.86 0.499977 8C0.499977 12.14 3.85998 15.5 7.99998 15.5C12.14 15.5 15.5 12.14 15.5 8C15.5 3.86 12.14 0.5 7.99998 0.5ZM7.99998 14C4.69248 14 1.99998 11.3075 1.99998 8C1.99998 4.6925 4.69248 2 7.99998 2C11.3075 2 14 4.6925 14 8C14 11.3075 11.3075 14 7.99998 14Z" fill="#D3D5D4"/>
</svg>
