<svg width="54" height="179" viewBox="0 0 54 179" fill="none" xmlns="http://www.w3.org/2000/svg">
<path d="M33.2407 141.365C31.1074 141.407 28.9791 141.43 26.8518 141.436C24.7235 141.464 22.5972 141.425 20.4639 141.411L14.0328 141.304C16.1019 141.961 18.2432 142.327 20.3876 142.581C22.5339 142.837 24.6964 142.941 26.8568 142.943C29.0172 142.91 31.1787 142.822 33.322 142.539C35.4674 142.292 37.5957 141.884 39.6809 141.304C37.5114 141.263 35.3771 141.341 33.2407 141.365Z" fill="#757474"/>
<path d="M52.1204 63.5967C52.4918 62.136 52.8191 60.7646 53.0761 59.576C53.306 58.3703 53.4727 57.3563 53.5871 56.6476C53.6805 55.9278 53.7347 55.5172 53.7347 55.5172C53.7347 55.5172 53.6042 55.8826 53.3763 56.5221C53.1655 57.1696 52.8623 58.0922 52.4737 59.1734C52.4446 59.2678 52.4105 59.3702 52.3794 59.4666C52.4778 55.5332 51.5301 50.7646 50.6757 46.4638C50.0593 43.3597 49.4218 40.1502 49.5032 38.6122C49.7441 34.0966 50.4659 27.9034 50.473 27.8412C50.5673 27.036 50.3354 26.2359 49.8967 25.8544C49.7572 25.7339 49.6076 25.6627 49.455 25.6416C49.1277 25.5944 48.7914 25.7731 48.5364 26.1566C48.4119 26.3443 47.0496 28.4134 45.4574 31.5667C45.5829 31.1732 45.7234 30.7816 45.86 30.3891C45.9192 30.2656 45.9734 30.1492 46.0346 30.0247C46.384 29.2105 46.7785 28.3662 47.1851 27.54C47.5506 26.6646 47.9391 25.8132 48.3115 25.0242C48.6599 24.202 48.9932 23.436 49.2964 22.7995C49.5694 22.1178 49.8073 21.5566 49.978 21.1691C50.1356 20.7565 50.225 20.5206 50.225 20.5206C50.225 20.5206 50.0784 20.6621 49.8204 20.9111C49.5755 21.1832 49.2301 21.5827 48.8225 22.0817C48.7713 22.153 48.7121 22.2423 48.6589 22.3166C48.6458 22.2775 48.6428 22.2323 48.6277 22.1941C48.6097 22.1469 46.7173 17.1023 46.9492 11.4151C47.2413 4.26316 45.9483 0.982356 42.4868 0.0908775C42.3824 0.0637717 42.278 0.0426892 42.1766 0.0286344C40.1426 -0.26451 38.6759 1.7363 36.9783 4.05234C35.875 5.55821 34.6241 7.26487 32.9335 8.81191C30.7309 10.8268 29.467 15.1577 28.7412 19.4956C28.7492 19.1663 28.7632 18.841 28.7843 18.5208C28.8325 17.812 28.6317 17.1284 28.2663 16.7509C28.1097 16.5893 27.933 16.4949 27.7533 16.4688C27.5134 16.4347 27.2654 16.521 27.0465 16.7288C26.92 16.8493 23.9213 19.7516 22.0269 26.0984C21.3453 28.3823 20.3946 31.5787 20.4036 35.1457C20.3052 34.8445 20.2149 34.5503 20.1396 34.2743C19.9318 33.69 19.7842 33.172 19.6848 32.8055C19.5674 32.4401 19.5001 32.2323 19.5001 32.2323C19.5001 32.2323 19.486 32.4702 19.4609 32.8879C19.4599 33.3005 19.464 33.8958 19.5081 34.6106C19.5804 35.3103 19.7029 36.1175 19.8685 36.9718C19.9298 37.2218 20.005 37.4738 20.0763 37.7257C20.0653 37.7257 20.0553 37.7237 20.0442 37.7247C19.5613 37.7659 19.1367 38.2829 18.974 39.0258C18.9319 39.2186 17.944 43.8406 18.2412 52.2524C18.2442 52.3267 18.2532 52.392 18.2572 52.4653C18.2281 52.395 18.192 52.3157 18.1649 52.2474C17.8386 51.5617 17.5886 50.9574 17.417 50.5307C17.2272 50.1131 17.1188 49.8741 17.1188 49.8741C17.1188 49.8741 17.1509 50.1693 17.2071 50.6853C17.2854 51.1883 17.4029 51.9091 17.5786 52.7594C17.7804 53.5876 18.0494 54.5323 18.3647 55.5282C18.714 56.4879 19.1286 57.4698 19.5653 58.4265C20.0442 59.327 20.5602 60.1713 21.0552 60.9383C21.1043 61.0036 21.1495 61.0588 21.1987 61.123C20.9608 61.0909 20.7168 61.1762 20.502 61.379C20.1697 61.6923 19.9478 62.2444 19.9077 62.8588C19.8866 63.175 19.4158 70.6833 21.1897 78.2489C21.4075 79.1785 21.6515 80.1784 21.9085 81.2345C22.0782 81.9322 22.2549 82.6591 22.4335 83.404C21.9948 82.3007 21.5782 81.2024 21.2238 80.1312C20.7409 78.8221 20.3665 77.5381 20.1165 76.3906C19.8294 75.2622 19.6828 74.2523 19.6145 73.5345C19.5603 73.1771 19.5453 72.89 19.5252 72.6932C19.5071 72.4954 19.4981 72.391 19.4981 72.391C19.4981 72.391 19.487 72.4964 19.4659 72.6942C19.4479 72.892 19.4067 73.1851 19.3886 73.5616C19.3535 74.3125 19.3535 75.4048 19.483 76.6958C19.6446 77.9688 19.9268 79.4204 20.3153 80.8992C20.7359 82.3519 21.2509 83.8276 21.7719 85.2733C22.3291 86.6476 22.8793 88.0069 23.3451 89.3171C23.2397 89.2488 23.1313 89.1966 23.0178 89.1805C22.808 89.1504 22.5901 89.2116 22.3884 89.3743C21.8884 89.7748 21.6204 90.6794 21.7449 91.5468C21.9878 93.2604 22.4416 98.3252 21.6254 101.119C20.25 105.829 20.0181 108.623 21.3503 115.886C21.6013 117.255 21.9908 118.923 22.4265 120.639C22.0561 120.019 21.6987 119.46 21.3654 118.994C20.9025 118.411 20.506 117.957 20.2209 117.659C19.9247 117.384 19.7551 117.227 19.7551 117.227C19.7551 117.227 19.8675 117.484 20.0643 117.934C20.2751 118.353 20.5612 118.975 20.8795 119.737C21.2319 120.449 21.6023 121.327 21.9767 122.279C22.3713 123.205 22.7719 124.214 23.1162 125.272C23.1774 125.431 23.2307 125.594 23.2899 125.753C17.9591 126.024 14.5428 126.811 14.3711 126.852C13.3501 127.091 12.6273 128.004 12.6273 129.053V136.79C11.4406 137.489 10.5542 138.708 10.5542 140.361V141.458C9.42478 141.598 8.00724 141.866 6.58067 142.376C2.33711 143.892 0 146.891 0 150.822V173.911C0 177.559 4.78867 178.117 7.08965 178.384C10.8001 178.815 16.7122 179 26.8588 179C37.0054 179 42.9175 178.815 46.6279 178.384C48.9289 178.116 53.7176 177.558 53.7176 173.911V150.822C53.7176 144.399 47.8387 142.002 43.1624 141.441V140.361C43.1624 138.708 42.276 137.489 41.0893 136.79V129.053C41.0893 128.003 40.3675 127.091 39.3455 126.852C39.1839 126.813 36.135 126.113 31.3212 125.804C31.8222 125.282 32.3121 124.828 32.7618 124.459C33.0791 124.139 33.3873 123.908 33.6573 123.681C33.9264 123.449 34.1683 123.273 34.3701 123.138C34.7687 122.824 34.9965 122.645 34.9965 122.645C34.9965 122.645 34.7466 122.696 34.3079 122.788C34.089 122.843 33.825 122.924 33.5258 123.051C33.2266 123.172 32.8803 123.286 32.5169 123.482C32.1615 123.679 31.781 123.916 31.3834 124.191C31.9527 123.647 32.6012 123.046 33.2979 122.412C34.0479 121.659 34.854 120.875 35.6652 120.106C36.4512 119.268 37.2443 118.449 37.9922 117.692C38.7231 116.885 39.4098 116.138 40.0041 115.513C40.5844 114.841 41.0683 114.28 41.4076 113.889C41.7409 113.472 41.9306 113.234 41.9306 113.234C41.9306 113.234 41.7037 113.355 41.3052 113.565C40.9166 113.811 40.3625 114.162 39.6979 114.584C39.6688 114.606 39.6357 114.631 39.6055 114.653C39.6547 114.598 39.7039 114.545 39.7541 114.49C40.8213 113.216 41.8885 111.91 42.8562 110.607C43.7979 109.249 44.6362 107.896 45.2968 106.651C45.9312 105.365 46.387 104.212 46.6691 103.379C46.8107 102.962 46.898 102.615 46.9643 102.387C47.0295 102.157 47.0637 102.035 47.0637 102.035C47.0637 102.035 47.0114 102.14 46.9141 102.339C46.8147 102.535 46.6801 102.832 46.4824 103.177C46.121 103.903 45.5628 104.882 44.8269 105.927C44.1342 106.987 43.2698 108.12 42.3051 109.25C43.6935 106.824 45.0468 103.76 46.4121 99.4175C51.7961 82.2866 51.6766 71.5056 51.6686 71.0548C51.6555 70.2798 51.3514 69.6071 50.9026 69.3572C50.8133 69.308 50.7219 69.2769 50.6306 69.2638C50.5021 69.2457 50.3756 69.2728 50.2511 69.322C50.4197 68.8903 50.5894 68.4627 50.753 68.022C51.2419 66.5321 51.7108 65.0283 52.1204 63.5967ZM24.1522 128.359C24.2637 128.702 24.3621 129.033 24.4604 129.364C21.2479 129.253 18.6458 128.939 16.9321 128.673C18.5243 128.419 20.9778 128.109 24.0358 127.983C24.0729 128.108 24.1171 128.235 24.1522 128.359ZM52.1063 152.024L52.1616 154.066C52.2017 155.427 52.1937 156.788 52.2117 158.15L52.1806 162.234C52.1364 163.595 52.1244 164.956 52.0541 166.318C51.9437 169.04 51.776 171.763 51.4528 174.485C51.1305 171.763 50.9618 169.04 50.8514 166.318C50.7821 164.956 50.7691 163.595 50.7249 162.234L50.6938 158.15C50.7119 156.788 50.7039 155.427 50.745 154.066L50.8002 152.024L50.8394 151.003C50.8464 150.665 50.8584 150.366 50.8303 150.051C50.7791 149.237 50.5392 148.45 50.1527 147.726C50.1427 147.731 50.1316 147.738 50.1216 147.742C50.0081 147.799 49.9037 147.84 49.7983 147.884C49.5895 147.966 49.3867 148.037 49.1869 148.098C48.7864 148.226 48.3948 148.322 48.0033 148.414C47.2222 148.589 46.4473 148.717 45.6752 148.832C44.1302 149.048 42.5912 149.184 41.0552 149.284C42.5209 148.813 43.9736 148.31 45.3821 147.74C46.0828 147.449 46.7765 147.149 47.4361 146.815C47.7634 146.647 48.0877 146.475 48.3838 146.29C48.5324 146.201 48.6709 146.108 48.7994 146.015C48.0415 145.333 47.1329 144.781 46.1762 144.321C47.5084 144.621 48.8245 145.183 49.9128 146.129C50.994 147.068 51.774 148.452 51.9668 149.919C52.0712 150.666 52.0842 151.351 52.1063 152.024ZM10.512 143.747C10.512 143.747 8.28132 144.889 6.8156 149.103C7.68097 149.425 8.59856 149.689 9.52116 149.941C11.3804 150.433 13.2979 150.812 15.2274 151.152C17.163 151.471 19.1136 151.747 21.0752 151.973C23.0369 152.203 25.0076 152.379 26.9823 152.55C25.0076 152.693 23.0268 152.832 21.0411 152.914C19.0553 153.002 17.0626 153.038 15.0618 153.03C13.06 152.998 11.0501 152.926 9.0192 152.723C8.02131 152.615 7.01939 152.493 6.00142 152.295C5.78758 153.51 5.63799 154.883 5.58478 156.441C5.27859 165.485 2.25983 173.912 2.25983 173.912C2.25983 171.745 2.25983 158.174 2.25983 150.823C2.25983 145.69 7.40691 144.187 10.512 143.747ZM33.32 172.763C31.1646 172.632 29.0112 172.543 26.8568 172.555C24.7024 172.541 22.549 172.631 20.3936 172.761C18.2382 172.899 16.0827 173.109 13.9143 173.307C16.0315 172.552 18.1829 172.045 20.3454 171.706C22.5078 171.357 24.6823 171.209 26.8568 171.195C29.0313 171.207 31.2058 171.356 33.3682 171.704C35.5307 172.043 37.682 172.55 39.7993 173.307C37.6308 173.111 35.4754 172.901 33.32 172.763ZM47.0867 175.419C43.6975 175.223 40.3294 175.013 36.9592 174.875C33.5901 174.744 30.2239 174.655 26.8568 174.667C23.4896 174.653 20.1235 174.743 16.7534 174.873C13.3842 175.011 10.0151 175.221 6.62684 175.419C9.93676 174.664 13.2999 174.157 16.6791 173.818C20.0593 173.469 23.4585 173.321 26.8568 173.307C30.255 173.319 33.6543 173.468 37.0345 173.816C40.4137 174.155 43.7768 174.662 47.0867 175.419ZM33.052 155.189C30.6847 155.328 28.3135 155.408 25.9432 155.368C23.574 155.333 21.2037 155.236 18.8475 154.97C20.0322 154.943 21.2138 154.937 22.3954 154.891C23.576 154.871 24.7566 154.837 25.9362 154.791C28.2954 154.693 30.6516 154.594 33.0048 154.437C35.36 154.307 37.7061 154.084 40.0543 153.866C41.2279 153.749 42.4014 153.622 43.57 153.457C44.7486 153.348 45.9071 153.125 47.0877 152.991C42.5129 154.244 37.7804 154.88 33.052 155.189ZM40.8986 141.966C39.6648 142.334 35.7987 143.21 26.9823 143.21C18.8034 143.21 14.5227 142.457 12.815 142.055C12.815 141.565 12.815 140.99 12.815 140.362C12.815 139.122 13.8089 138.652 14.4203 138.478C22.6343 139.969 31.1405 139.976 39.3566 138.497C39.971 138.684 40.8986 139.163 40.8986 140.361C40.8986 140.953 40.8986 141.495 40.8986 141.966ZM23.8702 137.587C28.8717 137.388 33.8973 136.645 38.8245 135.386V136.596C33.9003 137.469 28.8737 137.811 23.8702 137.587ZM38.8255 133.4C30.9327 135.457 22.7769 136.134 14.8891 135.375V134.122C22.7819 134.84 30.9297 134.168 38.8255 132.151V133.4ZM36.7815 128.673C34.9162 128.962 31.9978 129.308 28.3888 129.388C28.715 128.883 29.0594 128.414 29.4118 127.97C32.5962 128.09 35.1421 128.412 36.7815 128.673ZM32.1484 131.566C26.3869 132.487 20.5682 132.686 14.8881 132.139V130.712C16.5646 131.039 20.9266 131.761 26.8568 131.761C28.8034 131.761 30.5783 131.682 32.1484 131.566ZM26.9923 129.556C26.8558 129.556 26.7213 129.555 26.5897 129.554C27.4461 126.713 28.2492 123.834 28.9851 120.912C30.3123 115.643 31.4337 110.247 32.3281 104.764C32.806 102.034 33.1403 99.2518 33.5047 96.483C33.7919 93.6931 34.1021 90.9093 34.2777 88.0933C35.1983 76.8655 35.1983 65.5352 34.6994 54.2874C34.4916 48.6564 34.1513 43.0224 34.2015 37.3402C34.2737 31.6771 34.859 25.9187 36.386 20.7435C34.9815 26.002 34.4645 31.7072 34.4886 37.3322C34.4966 42.9722 34.8851 48.5841 35.1492 54.2171C35.7425 65.472 35.7395 76.8906 34.859 88.1866C34.6733 91.0157 34.352 93.8226 34.0539 96.6326C33.6784 99.4205 33.3321 102.22 32.8432 104.967C31.9165 110.477 30.7992 115.917 29.3997 121.176C28.6538 124.009 27.8487 126.803 26.9923 129.556ZM50.496 71.1542C50.496 71.1542 50.6777 81.6993 45.37 98.5872C40.8233 113.052 36.5014 112.655 29.8746 123.434C30.229 122.184 30.5342 120.9 30.8544 119.627C31.1897 118.253 31.5521 116.895 31.8372 115.49L32.7417 111.306C33.0188 109.898 33.2568 108.472 33.5158 107.055L33.8963 104.927L34.2115 102.773L34.8329 98.4587L35.3078 94.0997C35.4684 92.6461 35.627 91.1924 35.7184 89.7367L36.0457 85.3707C36.137 83.913 36.1872 82.4493 36.2595 80.9896L36.3599 78.798L36.4101 76.6044C36.4352 75.1417 36.4874 73.679 36.4904 72.2183C36.5426 66.3695 36.3538 60.5398 36.0818 54.7692C35.8177 48.9987 35.4333 43.2834 35.3961 37.6444C35.3971 31.9934 35.887 26.5682 36.898 21.1059L36.905 21.0687C36.9783 20.6712 36.8799 20.2355 36.651 20.0267C36.383 19.7817 36.0366 19.9403 35.878 20.3821C34.9474 22.9812 34.1984 25.8343 33.842 28.8029C33.4053 31.7615 33.3431 34.7632 33.2839 37.7217C33.2738 43.6328 33.6162 49.3893 33.827 55.1146C34.0469 60.8379 34.1824 66.5392 34.082 72.2424C33.9645 77.9417 33.6985 83.6359 33.2116 89.3C33.1212 90.7246 32.9676 92.125 32.811 93.5255L32.3532 97.7289L31.7509 101.893L31.4467 103.974L31.0773 106.031C30.1557 111.544 28.9259 116.931 27.5605 122.219C27.0335 124.27 26.4532 126.285 25.8519 128.284C24.9765 125.343 23.1654 119.074 22.4737 115.302C21.1726 108.213 21.5059 105.926 22.6815 101.896C23.8581 97.8664 22.8853 91.0729 22.8853 91.0729C26.1289 97.8463 26.4251 105.301 26.4251 105.301C27.2262 96.2923 23.9836 84.7693 22.2869 77.5361C20.5903 70.3039 21.0722 63.0164 21.0722 63.0164C24.3872 65.4529 28.3697 71.8891 28.3697 71.8891C25.37 60.5598 19.6999 60.2215 19.4128 52.0978C19.1256 43.9741 20.0783 39.6231 20.0783 39.6231C21.6093 45.4499 26.8387 46.5542 26.8387 46.5542C19.6718 39.7386 21.3262 32.7744 23.0821 26.8925C24.8379 21.0105 27.6228 18.3632 27.6228 18.3632C27.2363 24.1136 28.9379 31.2384 28.9379 31.2384C28.9379 31.2384 29.0283 14.5473 33.4917 10.4623C37.8296 6.49185 39.4208 1.54455 42.0461 1.92303C42.1224 1.93407 42.1997 1.94913 42.277 1.96921C45.0428 2.68098 46.0437 4.9408 45.7827 11.3388C45.5216 17.7367 47.6309 23.2292 47.6309 23.2292C41.8865 33.2965 41.4849 47.5009 41.4849 47.5009C42.6956 37.5099 49.3234 27.536 49.3234 27.536C49.3234 27.536 48.5866 33.8346 48.3376 38.4988C48.0886 43.163 52.1706 55.232 51.0101 61.5376C49.8495 67.8433 42.4677 85.9218 42.4677 85.9218L50.496 71.1542Z" fill="#757474"/>
<path d="M40.1387 93.2574C39.469 94.5554 38.8356 95.7601 38.2744 96.7671C37.7423 97.8222 37.2875 98.6906 36.9653 99.2909C36.6561 99.9184 36.4794 100.276 36.4794 100.276C36.4794 100.276 36.7123 100.015 37.1189 99.558C37.5124 99.0771 38.0706 98.3784 38.7322 97.517C39.3717 96.6205 40.0985 95.5403 40.8725 94.3677C41.6104 93.1399 42.3874 91.8127 43.1414 90.4504C43.8541 89.0309 44.5499 87.5913 45.1803 86.2159C45.7777 84.7994 46.3208 83.4642 46.7675 82.3026C47.1892 81.112 47.5225 80.1061 47.7544 79.4013C47.9672 78.6785 48.0887 78.2649 48.0887 78.2649C48.0887 78.2649 47.8989 78.6052 47.5676 79.2005C47.2514 79.8109 46.7986 80.6803 46.2384 81.6953C45.7124 82.7494 45.0789 83.9541 44.3882 85.223C43.7287 86.5301 43.0028 87.8934 42.2619 89.2357C41.5572 90.6301 40.8304 91.9934 40.1387 93.2574Z" fill="#757474"/>
<path d="M39.2662 70.6321C39.0895 71.5206 38.8827 72.3046 38.695 73.0014C38.6036 73.3517 38.5173 73.68 38.437 73.9832C38.3446 74.2763 38.2603 74.5464 38.183 74.7893C37.8888 75.7842 37.7202 76.3534 37.7202 76.3534C37.7202 76.3534 37.9591 75.8515 38.3778 74.9731C38.4781 74.7472 38.5886 74.4962 38.71 74.2241C38.8185 73.939 38.9359 73.6318 39.0614 73.3025C39.3174 72.645 39.6025 71.8981 39.8676 71.0437C40.4137 69.3431 40.9096 67.265 41.4116 65.0252C41.8483 62.7574 42.2529 60.3219 42.6384 57.8934C42.9707 55.4499 43.306 53.0224 43.6644 50.7716C44.0057 48.5188 44.345 46.4166 44.7466 44.6758C44.9082 43.7793 45.096 42.9822 45.2686 42.2755C45.4303 41.5607 45.5859 40.9463 45.7375 40.4574C46.0065 39.4444 46.1611 38.8652 46.1611 38.8652C46.1611 38.8652 45.9352 39.3822 45.5397 40.2867C45.3409 40.7425 45.1261 41.3187 44.8962 41.9974C44.6553 42.668 44.3882 43.432 44.1392 44.2964C43.6292 46.0221 43.1634 48.1132 42.6886 50.363C42.275 52.6369 41.8834 55.0714 41.5009 57.4949C41.1686 59.9324 40.8193 62.3498 40.4388 64.5875C40.0724 66.8273 39.7039 68.9154 39.2662 70.6321Z" fill="#757474"/>
<path d="M31.4497 48.2106C30.8574 47.2489 30.0824 46.2771 29.2552 45.3093C28.4089 44.3917 27.5064 43.4581 26.7323 42.3678C25.9222 41.3599 25.2626 40.116 24.8048 38.7638C24.3149 37.4456 24.0248 36.0371 23.9093 34.7832C23.7487 33.5364 23.7527 32.4341 23.7919 31.6691C23.7949 31.2806 23.821 30.9774 23.834 30.7686C23.8481 30.5587 23.8551 30.4473 23.8551 30.4473C23.8551 30.4473 23.828 30.5507 23.7768 30.7465C23.7256 30.9422 23.6443 31.2294 23.569 31.6108C23.4254 32.3718 23.2668 33.5042 23.2558 34.9057C23.2729 36.2981 23.4646 37.9295 23.9003 39.5468C24.3701 41.127 25.104 42.6489 25.9754 43.8466C26.8729 44.986 27.8326 45.8665 28.698 46.7098C29.5885 47.4888 30.3856 48.2458 31.01 49.0248C31.6616 49.7476 32.1394 50.4975 32.4266 51.0909C32.7338 51.6651 32.8703 52.0566 32.8703 52.0566C32.8703 52.0566 32.8141 51.6189 32.6203 50.8891C32.4105 50.1743 32.023 49.2125 31.4497 48.2106Z" fill="#757474"/>
<path d="M37.3397 31.3389C37.5294 30.1492 37.8135 28.7889 38.0956 27.3272C38.3818 25.8665 38.7311 24.3295 39.1076 22.8116C39.463 21.2796 39.8625 19.7747 40.2561 18.3763C40.6627 16.9879 41.018 15.6687 41.3744 14.5775C41.7218 13.4792 41.9979 12.5485 42.2147 11.9161C42.4195 11.2716 42.537 10.9041 42.537 10.9041C42.537 10.9041 42.3854 11.2384 42.1183 11.8227C41.8613 12.417 41.4849 13.2603 41.0883 14.3265C40.6868 15.3876 40.232 16.6435 39.7993 18.0349C39.3776 19.4344 38.948 20.9443 38.5635 22.4833C38.2061 24.0394 37.8768 25.6105 37.6108 27.1023C37.3427 28.5942 37.163 30.0137 37.0195 31.2284C36.8679 32.4422 36.8086 33.4702 36.7534 34.184C36.7132 34.8998 36.6902 35.3094 36.6902 35.3094C36.6902 35.3094 36.7544 34.9098 36.8658 34.2121C36.9662 33.5143 37.1389 32.5235 37.3397 31.3389Z" fill="#757474"/>
<path d="M31.1445 32.5314C31.2509 33.3837 31.3704 34.231 31.4949 35.0191C31.6214 35.8072 31.788 36.518 31.9226 37.1283C32.0561 37.7407 32.2097 38.2256 32.303 38.571C32.4084 38.9093 32.4687 39.1031 32.4687 39.1031C32.4687 39.1031 32.4476 38.8882 32.4105 38.5117C32.3683 38.1403 32.3091 37.6072 32.2378 36.9727C32.1514 36.3453 32.0912 35.5974 31.9888 34.8153C31.8904 34.0313 31.7991 33.191 31.7207 32.3467C31.6194 31.5104 31.531 30.6691 31.4607 29.876C31.3955 29.0819 31.2961 28.3471 31.2469 27.7076C31.1817 27.0711 31.1264 26.536 31.0893 26.1636C31.0461 25.7891 31.021 25.5753 31.021 25.5753C31.021 25.5753 31.0039 25.7931 30.9758 26.1746C30.9598 26.5551 30.9156 27.1042 30.9186 27.7578C30.9196 28.4113 30.9096 29.1793 30.9568 29.9925C31.003 30.8047 31.0672 31.669 31.1445 32.5314Z" fill="#757474"/>
<path d="M48.0666 62.3378C47.7533 63.2724 47.3879 64.3627 46.9964 65.5302C46.6129 66.7038 46.1922 67.9446 45.7626 69.1764C45.354 70.4263 44.9323 71.6672 44.5287 72.8227C44.1322 73.9852 43.7618 75.0724 43.4435 76.0031C43.1293 76.9387 42.8673 77.7208 42.6836 78.2669C42.5049 78.8191 42.4025 79.1353 42.4025 79.1353C42.4025 79.1353 42.539 78.8552 42.7789 78.3643C43.0078 77.8623 43.3522 77.1626 43.7226 76.2772C44.0931 75.3927 44.5368 74.3687 44.9655 73.2272C45.3921 72.0838 45.8399 70.856 46.2746 69.6162C46.6852 68.3552 47.0847 67.0873 47.4482 65.8886C47.8106 64.6899 48.1037 63.5364 48.3637 62.5566C48.6247 61.5768 48.8004 60.7325 48.937 60.1512C49.0614 59.5619 49.1327 59.2256 49.1327 59.2256C49.1327 59.2256 49.0233 59.5358 48.8336 60.0789C48.6478 60.6251 48.3828 61.4051 48.0666 62.3378Z" fill="#757474"/>
<path d="M41.4719 100.751C41.0362 101.921 40.4619 103.218 39.8445 104.597C39.2321 105.983 38.5113 107.381 37.7654 108.737C37.0385 110.122 36.2485 111.418 35.4925 112.606C34.7235 113.771 34.0128 114.881 33.3582 115.748C32.7107 116.627 32.1756 117.381 31.78 117.862C31.3935 118.366 31.1727 118.654 31.1727 118.654C31.1727 118.654 31.4166 118.422 31.8443 118.013C32.2669 117.592 32.8723 116.987 33.558 116.165C34.2467 115.351 35.0388 114.364 35.8328 113.202C36.6179 112.026 37.4391 110.738 38.1991 109.354C38.939 107.945 39.6518 106.496 40.2551 105.062C40.8655 103.638 41.3574 102.227 41.7549 101.007C42.1615 99.7909 42.4266 98.7197 42.6193 97.9818C42.797 97.2329 42.8974 96.8052 42.8974 96.8052C42.8974 96.8052 42.7589 97.2058 42.5169 97.9055C42.283 98.6103 41.9186 99.5911 41.4719 100.751Z" fill="#757474"/>
<path d="M26.0908 121.571C26.2153 121.86 26.2866 122.026 26.2866 122.026C26.2866 122.026 26.2524 121.831 26.1942 121.489C26.1299 121.154 26.0386 120.671 25.9292 120.1C25.8167 119.533 25.6852 118.868 25.5447 118.16C25.3971 117.457 25.2495 116.702 25.115 115.941C24.9574 115.193 24.8108 114.437 24.6853 113.722C24.5638 113.005 24.4122 112.351 24.3169 111.774C24.2054 111.203 24.1111 110.723 24.0448 110.388C23.9735 110.053 23.9324 109.862 23.9324 109.862C23.9324 109.862 23.9324 110.066 23.9324 110.423C23.9454 110.777 23.9424 111.292 23.9936 111.893C24.0438 112.494 24.088 113.205 24.1924 113.944C24.2968 114.683 24.4213 115.466 24.5568 116.245C24.7195 117.009 24.8952 117.764 25.0688 118.465C25.2455 119.164 25.4563 119.785 25.626 120.32C25.7967 120.857 25.9774 121.272 26.0908 121.571Z" fill="#757474"/>
<path d="M28.3225 98.8744C28.1549 97.4428 28.0123 95.7562 27.8246 93.9572C27.6379 92.1582 27.4461 90.2317 27.2242 88.3102C26.9762 86.3967 26.6921 84.4923 26.3689 82.7324C26.0446 80.9715 25.639 79.3843 25.2616 78.0552C24.8811 76.725 24.4825 75.6869 24.1994 74.9731C23.9083 74.2664 23.7286 73.8789 23.7286 73.8789C23.7286 73.8789 23.8731 74.3045 24.1 75.0675C24.341 75.8174 24.6321 76.9318 24.9584 78.275C25.2867 79.6183 25.5808 81.2386 25.881 82.9784C26.1761 84.7222 26.4321 86.6115 26.651 88.517C26.897 90.4144 27.1148 92.3278 27.3256 94.1218C27.5354 95.9179 27.7864 97.5783 28.0023 98.9989C28.2201 100.42 28.462 101.577 28.6267 102.385C28.8074 103.184 28.9108 103.641 28.9108 103.641C28.9108 103.641 28.8476 103.165 28.7361 102.332C28.6167 101.505 28.4882 100.306 28.3225 98.8744Z" fill="#757474"/>
<path d="M31.8092 73.8597C31.6104 72.6781 31.3554 71.3048 31.007 69.8802C30.6566 68.4577 30.229 66.9769 29.7682 65.5262C29.2793 64.0997 28.7382 62.7233 28.2091 61.4614C27.668 60.2125 27.1098 59.1112 26.6159 58.1946C26.128 57.269 25.6752 56.5642 25.364 56.0683C25.0447 55.5844 24.862 55.3084 24.862 55.3084C24.862 55.3084 25.0136 55.6306 25.2787 56.1938C25.5537 56.7409 25.9141 57.5662 26.3559 58.5349C26.8086 59.4927 27.2684 60.6873 27.7855 61.9332C28.2854 63.1981 28.7954 64.5725 29.2522 65.993C29.728 67.3965 30.1717 68.8311 30.5392 70.2145C30.9016 71.5989 31.255 72.888 31.4969 74.0324C31.7529 75.1678 31.9637 76.1226 32.0922 76.8002C32.2298 77.4758 32.3091 77.8614 32.3091 77.8614C32.3091 77.8614 32.2699 77.4578 32.2027 76.751C32.1194 76.0523 32.018 75.0373 31.8092 73.8597Z" fill="#757474"/>
</svg>
