<svg width="16" height="27" viewBox="0 0 16 27" fill="none" xmlns="http://www.w3.org/2000/svg">
<path d="M4.49403 25.6863V15.8667H0.73573C0.540603 15.8667 0.353467 15.7892 0.215491 15.6512C0.0775144 15.5132 0 15.3261 0 15.131V11.2471C0 11.052 0.0775144 10.8648 0.215491 10.7269C0.353467 10.5889 0.540603 10.5114 0.73573 10.5114H4.47918V6.75173C4.38963 5.86015 4.49637 4.95977 4.7919 4.11384C5.08743 3.26791 5.56458 2.49694 6.18984 1.85508C6.8151 1.21322 7.57331 0.71604 8.41121 0.398457C9.24911 0.0808738 10.1464 -0.0494092 11.04 0.0167589H14.1719C14.3689 0.0163728 14.5581 0.0934388 14.6988 0.231331C14.8395 0.369223 14.9203 0.556888 14.9238 0.753839V4.04235C14.9196 4.23895 14.8385 4.42607 14.698 4.5636C14.5574 4.70113 14.3686 4.77813 14.1719 4.77808H12.2145C10.1004 4.77808 9.69409 5.77975 9.69409 7.25256V10.51H14.72C14.8245 10.5066 14.9284 10.5259 15.0246 10.5667C15.1209 10.6075 15.2071 10.6687 15.2772 10.7462C15.3474 10.8237 15.3998 10.9155 15.4309 11.0153C15.4619 11.1151 15.4709 11.2205 15.4571 11.3241L15.0021 15.2228C14.9794 15.4013 14.8919 15.5653 14.7563 15.6838C14.6207 15.8022 14.4464 15.8668 14.2664 15.8653H9.72514V25.685C9.72769 25.8585 9.69538 26.0307 9.63012 26.1915C9.56486 26.3522 9.46798 26.4983 9.34523 26.6209C9.22248 26.7435 9.07635 26.8402 8.91552 26.9053C8.75468 26.9704 8.58241 27.0026 8.40892 26.9998H5.79404C5.62191 27.0004 5.4514 26.9667 5.29245 26.9006C5.1335 26.8345 4.9893 26.7375 4.86828 26.615C4.74726 26.4926 4.65183 26.3474 4.58758 26.1877C4.52332 26.028 4.49152 25.8584 4.49403 25.6863Z" fill="white"/>
</svg>
