<svg width="160" height="80" viewBox="0 0 160 80" fill="none" xmlns="http://www.w3.org/2000/svg">
<path d="M81.4724 41.033C81.7331 40.2729 81.3199 39.8253 82.5473 39.4612C84.6085 38.8487 84.4831 42.2506 84.4019 43.4804C84.0477 48.8771 81.4674 53.5556 78.6338 57.9929C79.9645 61.2546 82.2373 61.5128 84.9627 59.4491C85.5678 58.9916 86.5567 58.2315 86.5567 57.5182C86.5567 56.094 86.3181 55.0462 86.5886 53.4695C86.8592 51.8928 88.8713 46.2673 89.806 44.9883C90.1626 44.5012 90.5316 44.5332 90.9252 44.1569C91.2031 44.302 90.9252 44.6636 90.8366 44.8481C89.3337 47.9154 87.0953 52.3158 87.1076 55.7595C87.1076 56.1506 87.0461 56.6991 87.511 56.8344C88.8885 53.9786 90.5045 51.4648 91.4614 48.4024C91.6828 47.6964 92.9692 43.569 92.0886 43.3796L91.4835 43.9773L90.8218 43.7682C91.0211 43.0598 91.3433 42.5162 92.1427 42.4351C93.38 42.3121 93.2152 44.2307 93.1586 45.035C92.9471 48.0531 90.416 53.2924 88.9106 55.9956C88.062 57.5207 86.6304 57.9437 88.2908 59.6631C91.0629 62.5312 94.6148 59.1687 96.4128 56.9057C96.1005 55.1937 96.2825 53.5137 96.6416 51.8362C97.0376 49.9766 99.2096 43.7289 100.715 42.8458C100.821 42.7843 101.48 42.3883 101.345 42.8901C98.848 46.7691 96.8925 51.3516 97.0622 56.0596C97.9403 55.2626 98.7545 53.8704 99.3621 52.8053C101.308 49.3986 102.373 45.8418 102.712 41.921L102.223 41.8152L101.841 42.3342L101.155 42.1128C101.458 41.9234 101.463 41.1781 101.578 41.0748C101.841 40.8411 103.064 40.6788 103.344 41.279C103.856 42.376 102.661 47.111 102.23 48.4565C101.182 51.7255 99.2539 54.4115 97.3377 57.2083C98.3954 60.2682 100.538 60.7478 103.15 58.9744C103.615 58.6571 105.984 56.217 106.003 55.7718C106.016 55.5012 105.816 55.1495 105.819 54.7928C105.851 52.2863 106.328 50.1021 107.189 47.7604C107.307 47.4382 108.552 44.2184 108.945 44.5455C109.199 45.8147 108.185 47.2734 107.774 48.5401C107.152 50.4661 106.559 52.4364 106.611 54.4927C109.078 51.6542 110.411 47.7333 110.701 43.9601C110.249 43.5149 109.039 45.1432 109.144 44.2577C109.331 42.7056 111.125 42.0907 111.427 44.1101C111.966 47.7137 109.056 51.7649 107.553 54.7559C106.995 55.8677 106.712 56.2785 107.499 57.405C109.902 60.8389 115.129 55.484 116.802 53.4744C117.215 49.6618 118.275 46.0361 120.243 42.8409C121.148 41.3724 121.426 39.8351 123.524 40.6837C124.22 43.8912 121.906 48.2499 120.046 50.8351C118.607 52.8348 117.217 52.8447 118 55.8652C119.102 60.1132 122.223 58.5439 124.511 56.3129C125.608 55.2429 128.512 51.2409 128.963 49.8586C129.671 47.6915 129.976 45.0227 130.63 42.7499C131.258 40.5681 132.155 38.4478 132.962 36.5071C133.284 35.7298 133.676 35.0066 134.65 35.2034C135.486 35.7765 133.892 41.3085 133.55 42.3563C131.678 48.0703 128.326 51.1278 128.813 57.7224C128.906 58.994 129.482 61.4833 131.208 60.6888C134.335 59.2499 139.205 48.9066 140.868 45.5884C141.709 43.9084 143.015 42.135 143.667 40.3935C144.304 38.6938 144.582 36.6005 145.133 34.8394C148.328 24.6413 151.951 11.3488 157.319 2.37565C157.616 1.87632 158.288 -0.514549 159.203 0.100387C159.692 0.429993 159.249 2.97091 159.129 3.59814C158.229 8.33561 155.811 13.0116 154.059 17.4416C152.084 22.4373 150.252 27.4896 148.208 32.4534C146.587 36.3939 144.233 40.5706 142.951 44.5529C140.661 51.6689 137.857 62.8681 138.361 70.2056C138.408 70.8721 138.595 71.5412 138.693 72.2029L138.893 72.4562C139.623 72.6456 140.236 72.9506 140.86 73.3688C141.146 73.5607 141.249 73.8681 141.443 74.0034C143.514 75.4423 145.809 76.8223 145.357 79.8256C141.001 80.9399 138.477 76.4902 137.678 72.8424C132.704 70.1268 126.766 68.6018 121.261 67.2342C116.595 66.0757 111.607 65.0942 107.11 64.2333C100.545 62.9764 90.0692 63.3773 83.3024 64.2358C82.8326 64.2948 82.1119 64.5531 81.1747 64.6441C60.353 66.6389 39.6739 69.4258 19.1892 73.5975C13.4088 74.7733 7.06509 76.8223 1.01412 77.2601C0.600885 77.2896 -0.0681656 77.3634 0.00562671 76.7386C3.08523 75.6982 6.27552 74.911 9.40431 73.9911C9.57403 73.9419 9.5519 73.664 9.82001 73.5853C12.6635 72.7539 15.6422 72.2914 18.4463 71.2977C18.6849 71.1771 18.8178 71.369 18.7095 71.5633C18.525 71.8954 12.388 73.3516 11.4631 73.6344C9.58387 74.21 7.27417 74.8766 5.33589 75.5309C5.05794 75.6244 5.00875 76.1089 4.48728 75.9564C4.85624 76.7091 5.53513 75.7916 5.60892 75.7744C8.81889 74.975 13.057 74.2789 16.2645 73.5975C35.394 69.5267 54.7103 66.7496 74.1546 64.6441C74.7031 64.585 75.7166 64.9269 75.6182 64.2554L75.81 64.6416H76.1962C76.0462 64.1423 77.3892 64.1349 77.8836 64.0906C81.5363 63.7463 85.4817 63.4905 89.1591 63.2814C91.4491 63.151 93.7834 63.1904 96.0759 63.0846V62.1081C96.1324 62.0244 97.1827 62.4598 97.3279 62.4746C101.273 62.8681 105.521 62.5164 109.804 62.4918C112.278 62.477 114.807 62.9272 117.313 62.696C117.52 63.1707 116.617 63.2297 116.396 63.2223C113.538 63.119 110.433 63.0797 107.469 63.2814C107.081 63.3084 106.906 63.1239 106.987 63.67L108.803 63.6872C117.385 65.7165 126.139 67.367 134.849 70.4048L137.582 71.6666C136.654 63.0846 139.451 54.6747 141.672 46.5084C140.814 47.4455 140.376 48.8255 139.758 49.9545C138.297 52.6356 134.47 59.6852 132.116 61.225C127.435 64.285 127.693 54.9305 128.422 52.5544C127.568 53.312 127.005 54.7043 126.279 55.5775C125.448 56.5786 123.049 58.6841 121.869 59.1588C118.659 60.4551 117.513 57.5428 116.92 54.992C116.718 54.1213 116.192 55.3487 115.951 55.575C112.987 58.3373 109.172 61.8375 106.016 57.041C103.544 60.6175 99.1063 63.0551 96.5604 58.0175C95.1141 59.1219 94.0859 60.7257 92.2829 61.3382C90.0569 62.0958 87.6266 61.2299 86.9133 58.9178L86.5271 58.7973C85.9909 59.8304 84.8028 60.706 83.7771 61.2127C83.2729 61.4612 82.4661 61.3579 82.2373 61.9113L83.0146 62.3024H81.6519L82.0406 61.7194C81.401 61.4661 81.433 62.5533 80.9681 61.9113C80.9238 61.8498 81.069 61.5965 81.0271 61.5546C80.8574 61.3751 79.5685 61.1389 79.3102 60.647L77.8516 58.7948C76.6611 59.9927 75.3402 60.9815 73.9726 61.9457C73.7611 62.0958 73.6922 62.4574 73.52 62.5016C72.6419 62.7304 71.1291 62.6222 70.2658 62.2975L69.8771 62.8386L68.9842 62.6935L69.9558 62.2089C68.8785 61.5473 68.0938 60.8069 67.3288 59.8058C64.4509 62.1991 59.6052 62.9665 58.2622 58.6005C57.9326 58.3004 57.0938 59.6631 56.8798 59.8476C54.6144 61.808 51.6873 62.7009 49.9188 59.6385C49.7343 59.3187 49.5744 58.2512 49.203 58.4062C48.6889 58.6251 47.5279 60.6962 46.8908 61.2619C46.3521 61.7391 45.078 62.6566 44.4311 62.0097C43.3193 60.8954 43.6808 53.5654 43.7448 51.7747C41.841 53.5285 40.1413 55.4692 38.0972 57.0435C37.5782 60.0444 36.6927 62.9444 37.2142 66.0117C36.4738 65.8985 36.2229 66.6168 35.8835 65.4755C35.9031 63.5913 36.6361 61.075 36.0507 59.2769C35.9868 59.0777 36.1786 58.9129 35.7531 58.9867C35.0545 59.1072 32.1446 61.3406 31.2345 61.8793C27.5794 64.039 23.5872 66.0904 19.3294 66.7398C15.8046 67.2785 11.468 67.1727 9.89626 63.4142C9.09684 61.503 9.72162 60.2067 10.826 58.6177C13.4432 54.8494 19.2777 51.4869 23.7594 50.6924C26.0863 50.2792 28.0049 50.4759 30.258 51.1622L34.6118 46.2452C35.0324 44.8948 36.2942 43.8838 37.0223 42.8483C40.8472 37.4 42.0254 34.1777 43.9465 27.7922C44.773 25.0446 46.3497 20.9959 46.9203 18.4821C47.031 17.9926 46.9007 16.0592 47.4516 15.8944C47.646 15.7911 48.1281 16.0248 48.1281 16.1822V19.4979C48.1281 23.9402 43.8506 31.6417 42.3354 35.9339C40.1659 42.0808 39.6715 49.5019 38.1907 55.8726L41.3121 53.2432L43.9957 50.567C44.3942 46.7052 45.3658 42.8975 46.7703 39.2964L47.154 39.6826L47.5451 39.0996C47.55 39.2571 47.5599 39.4145 47.5328 39.5719C47.3041 40.9715 46.0766 43.5198 45.688 45.1383C45.3904 46.3829 45.1567 47.8243 45.11 49.0444C47.4615 45.9574 49.4047 42.1399 49.1046 38.1207C48.8783 38.2756 48.5142 38.1157 48.3322 38.219C48.0444 38.3814 47.8255 39.3456 47.3852 38.6766C46.6448 37.55 49.3875 36.357 49.6777 38.2338C50.1032 40.974 48.8857 44.1077 47.6214 46.4862C47.1024 47.4628 44.7336 50.5547 44.6328 51.1032C44.2367 53.2628 44.3499 57.8109 44.6697 60.0198C44.6967 60.2092 45.0066 61.1365 45.1198 61.1463C47.1269 60.647 47.6533 58.5685 49.0701 57.2944C48.5142 53.6564 49.8253 50.3062 51.3011 47.052C51.6086 46.3756 53.6035 42.3957 54.0093 42.2653C54.1618 42.2161 54.5111 42.4867 54.7571 42.4178C54.1741 43.1926 53.3993 44.6636 52.9295 45.5614C51.2519 48.7763 49.6679 52.3675 49.8868 56.0694L52.7524 51.236C53.323 49.9742 56.8577 42.1669 56.1198 41.4413C55.6426 41.3282 55.0227 42.0636 54.7571 42.4178C54.2823 40.0147 57.0127 39.5301 57.0766 41.948C57.0988 42.8212 56.1296 45.495 55.768 46.4518C54.6636 49.3814 52.6835 53.4522 51.0478 56.1186C50.8879 56.3818 50.2434 56.7483 50.1155 57.1886C49.9212 57.8453 50.7625 59.3901 51.2421 59.8796C53.3968 62.0835 56.2157 59.5081 57.7727 57.8207C58.1097 57.2034 57.6965 56.554 57.6817 55.9686C57.5636 51.3418 58.7911 46.3141 61.2852 42.4178L61.6886 43.0082C59.8586 46.6387 58.5279 50.6949 58.4516 54.8076L58.8452 56.4556C59.2953 55.666 60.0086 54.0672 60.594 53.4547C61.0737 52.9529 60.8179 53.6638 61.2877 52.365C62.5594 48.8599 63.868 45.217 62.9382 41.4389C62.4487 41.675 62.2396 42.3588 61.5779 42.2186C61.4033 41.0945 61.7305 40.9051 62.6504 40.4673L63.1325 41.0478L63.2309 40.4648C63.59 40.7526 63.7868 41.1338 63.868 41.584C64.7904 46.6953 62.5545 51.8878 59.9816 56.1309C59.2166 57.3952 58.3975 57.2156 59.2756 58.8563C61.0934 62.2507 64.5444 60.9176 66.9377 59.0014C65.5135 53.3293 66.7016 46.9782 70.0518 42.221L70.4453 42.4178C70.2067 41.397 71.0553 41.0305 71.8056 40.5312L72.5853 41.0527L72.7772 40.6567C74.5113 41.9185 74.1005 45.0178 73.7955 46.9462C73.1535 50.9876 71.1341 56.217 68.0053 58.9104C70.3543 63.7856 75.3599 61.0922 77.5171 57.6756C76.8357 52.0428 78.0582 45.7114 80.9632 40.8559L81.1501 41.2445C81.2411 41.1781 81.3445 41.0797 81.4478 41.0502C81.1895 41.8078 80.7984 42.2161 80.5696 42.804C78.9044 47.1209 77.6352 52.2273 78.3313 56.8467L79.721 54.5345L80.0801 54.7042C80.2425 53.4153 81.2682 52.3109 81.7724 51.0319C82.4981 49.1969 84.1953 42.7253 83.6542 41.0822C83.5927 40.8928 83.5508 40.6985 83.4033 40.5509C82.9507 40.241 82.0135 40.8854 81.4453 41.0502L81.4724 41.033ZM145.977 34.9869C146.417 34.5712 146.739 33.7349 146.983 33.1692C149.637 27.042 152.178 20.6515 154.588 14.4505C156.214 10.264 158.039 5.91031 158.639 1.44095C158.408 1.49752 158.202 1.75825 158.086 1.95749C155.828 5.81929 154.455 10.1976 152.667 14.2833L145.977 34.9894V34.9869ZM44.4409 29.7206C44.8984 27.5634 46.1086 25.4923 46.1947 23.2859L44.6943 27.5339C44.6574 28.08 44.4311 28.6014 44.3351 29.1254C44.2982 29.3271 44.0793 29.7649 44.4409 29.7182V29.7206ZM134.086 36.1578L133.651 36.4038C132.487 39.9089 130.916 43.3673 130.581 47.079L132.861 41.8545C133.284 39.9655 134.19 38.1305 134.086 36.1578ZM33.2146 53.2456C34.629 54.3894 35.4038 56.0989 36.3582 57.6068L37.3322 56.8196C38.139 50.7293 39.5091 44.7079 40.7415 38.6913L35.7039 46.0336C35.3177 46.7175 35.7678 47.0717 34.6856 47.3521L31.1952 51.4697L33.2146 53.2456ZM122.961 41.4438C122.636 40.9125 121.46 42.039 121.232 42.349C120.021 43.9921 118.639 47.9695 118.199 49.9988C118.049 50.6973 117.941 51.4328 117.913 52.151C119.441 50.8695 123.869 42.9319 122.961 41.4462V41.4438ZM72.9247 42.1768L72.2163 41.4216C72.0688 41.4216 70.9619 42.1227 70.8167 42.2702C69.9386 43.1533 68.4529 46.7396 68.0766 48.0113C67.0804 51.3787 66.7901 54.7682 67.6363 58.1971C67.9069 58.4824 68.7973 57.1173 68.9646 56.8959C69.9435 55.5848 70.3715 54.3279 71.0504 53.1251C71.1316 52.9824 71.4489 52.9898 71.5965 52.6897C72.1499 51.5509 72.3024 49.9742 72.5583 48.7886C73.0576 46.4616 73.5544 44.4619 73.2863 42.0095L72.9272 42.1792L72.9247 42.1768ZM28.974 52.857L29.6308 52.0526C29.6382 51.3811 25.5206 51.3467 24.8859 51.3959C20.8692 51.6935 15.5143 54.6698 12.7496 57.4862C11.104 59.1613 9.68226 61.0061 10.9195 63.3749C12.4101 66.2257 15.6004 66.1494 18.4365 66.0092C22.1581 65.8247 24.7531 64.4989 27.9582 62.8608C30.5557 61.5325 33.0351 59.9976 35.4432 58.357L35.4997 58.1061C34.5823 55.7964 32.9293 53.558 30.6934 52.338C30.5114 52.3134 29.0601 53.9737 28.8535 54.2517C28.519 54.6993 27.8499 56.1653 27.6335 56.3818C27.2473 56.7655 26.2093 57.3534 25.7321 57.9044C25.2131 58.507 25.0261 60.069 23.7889 59.0777L28.9716 52.8594L28.974 52.857ZM139.471 73.6836C139.301 73.5656 138.942 73.2187 138.767 73.5041C139.244 75.0021 139.52 75.8285 140.526 77.019C140.671 77.1912 140.651 77.5208 140.772 77.6438C140.848 77.7225 142.499 78.7064 142.666 78.7704C143.269 79.0041 143.967 79.0975 144.612 79.0631C144.083 76.2368 141.859 75.2923 139.69 73.9886C139.572 73.9173 139.54 73.7304 139.471 73.6812V73.6836Z" fill="white"/>
</svg>
